<?xml version="1.0" encoding="UTF-8" standalone="no"?><svg xmlns="http://www.w3.org/2000/svg" xmlns:xlink="http://www.w3.org/1999/xlink" fill="#000000" height="768.1" preserveAspectRatio="xMidYMid meet" version="1" viewBox="0.0 -1.1 427.4 768.1" width="427.4" zoomAndPan="magnify"><defs><clipPath id="a"><path d="M 52 681 L 248 681 L 248 767.078125 L 52 767.078125 Z M 52 681"/></clipPath><clipPath id="b"><path d="M 398 249 L 427.390625 249 L 427.390625 299 L 398 299 Z M 398 249"/></clipPath></defs><g><g id="change1_1"><path d="M 0 409.253906 C 6.742188 395.949219 19.050781 391.390625 32.488281 388.785156 C 33.53125 388.585938 35.375 389.761719 36.027344 390.8125 C 38.394531 394.617188 38.371094 398.777344 36.894531 402.945312 C 32.75 414.628906 18.679688 421.695312 7.035156 417.5625 C 4.402344 416.628906 2.332031 414.105469 0 412.3125 C 0 411.292969 0 410.273438 0 409.253906" fill="#ffffff"/></g><g id="change1_2"><path d="M 235.214844 329.15625 C 242.0625 322.894531 246.53125 316.175781 247.425781 307.683594 C 248.050781 301.761719 247.839844 295.757812 248.128906 289.796875 C 248.277344 286.773438 248.15625 283.574219 249.121094 280.789062 C 252.621094 270.660156 265.488281 267.738281 272.628906 275.726562 C 275.417969 278.847656 277.609375 283.410156 278.082031 287.546875 C 280.953125 312.664062 274.652344 334.777344 255.378906 352.253906 C 242.855469 363.605469 227.636719 363.34375 214.972656 351.457031 C 208.609375 345.484375 204.265625 338.199219 201.160156 330.144531 C 195.242188 314.78125 191.757812 298.878906 191.757812 282.386719 C 191.757812 260.171875 192.742188 238.027344 199.367188 216.554688 C 203.78125 202.253906 210.480469 189.167969 220.308594 177.832031 C 235.269531 160.566406 253.167969 156.863281 272.980469 168.269531 C 302.597656 185.316406 320.246094 211.289062 323.84375 245.277344 C 328.121094 285.691406 323.761719 325.65625 313.726562 365.039062 C 303.039062 407.007812 286.355469 446.632812 267.535156 485.464844 C 256.757812 507.699219 244.109375 528.675781 227.761719 547.320312 C 207.945312 569.914062 184.203125 587.089844 156.796875 599.277344 C 150.378906 602.132812 143.730469 603.578125 136.710938 602.101562 C 131.246094 600.953125 126.867188 598.269531 125.457031 592.511719 C 124.101562 586.984375 126.730469 582.710938 130.984375 579.617188 C 134.871094 576.789062 138.953125 574.023438 143.335938 572.105469 C 179.246094 556.390625 207.175781 531.410156 226.363281 497.546875 C 256.550781 444.261719 280.148438 388.210938 290.558594 327.425781 C 295.171875 300.488281 296.992188 273.175781 293.371094 245.933594 C 290.625 225.246094 279.457031 209.210938 262.570312 197.304688 C 252.296875 190.058594 247.539062 190.851562 240.527344 201.371094 C 236.117188 207.988281 231.773438 215.105469 229.527344 222.632812 C 221.3125 250.136719 219.257812 278.171875 225.519531 306.441406 C 226.671875 311.628906 228.671875 316.660156 230.644531 321.617188 C 231.648438 324.140625 233.46875 326.335938 235.214844 329.15625" fill="#ffffff"/></g><g id="change1_3"><path d="M 358.570312 171.3125 C 357.710938 178.578125 354.058594 184.488281 348.453125 186.597656 C 343.136719 188.597656 337.160156 186.710938 332.582031 181.132812 C 330.503906 178.601562 328.9375 175.625 327.300781 172.761719 C 318.496094 157.386719 308.386719 143.089844 293.738281 132.65625 C 282.121094 124.378906 269.128906 121.425781 254.851562 121.4375 C 226.9375 121.460938 206.898438 133.855469 191.699219 156.882812 C 169.550781 190.441406 154.285156 226.808594 143.492188 265.367188 C 130.949219 310.167969 116.542969 354.375 99.261719 397.601562 C 93.289062 412.542969 86.113281 426.878906 76.886719 440.128906 C 71.203125 448.285156 64.632812 455.449219 55.417969 459.710938 C 50.957031 461.769531 46.363281 463.117188 41.363281 462.128906 C 33.496094 460.570312 29.015625 452.507812 35.378906 444.855469 C 49.328125 428.078125 61.492188 410.046875 69.742188 389.597656 C 87.648438 345.230469 102.289062 299.773438 115.257812 253.769531 C 126.296875 214.625 141.542969 177.390625 164.386719 143.601562 C 170.492188 134.566406 177.402344 125.957031 184.792969 117.941406 C 196.714844 105.019531 211.75 97.179688 229.074219 94.03125 C 251.566406 89.949219 273.867188 88.90625 295.414062 98.746094 C 305.003906 103.121094 313.804688 108.703125 321.480469 115.886719 C 334.503906 128.074219 345.320312 142.054688 353.617188 157.863281 C 355.820312 162.058594 356.949219 166.8125 358.570312 171.3125" fill="#ffffff"/></g><g id="change1_4"><path d="M 307.226562 75.457031 C 297.683594 73.65625 288.582031 71.832031 279.4375 70.242188 C 269.53125 68.519531 259.601562 66.929688 249.65625 65.4375 C 237.449219 63.609375 225.582031 65.25 214.773438 71.09375 C 195.738281 81.378906 176.792969 91.859375 158.257812 103.003906 C 145.253906 110.820312 136.117188 122.726562 128.019531 135.4375 C 111.441406 161.449219 102.628906 190.082031 96.855469 220.234375 C 89.792969 257.132812 81.03125 293.710938 72.601562 330.339844 C 70.644531 338.855469 67.519531 347.191406 64.070312 355.242188 C 62.234375 359.53125 59.023438 363.523438 55.605469 366.777344 C 51.054688 371.105469 44.394531 371.464844 39.617188 368.585938 C 34.160156 365.296875 32.507812 360.136719 33.117188 354.140625 C 33.34375 351.886719 33.890625 349.570312 34.789062 347.496094 C 42.335938 330.066406 46.339844 311.636719 50.28125 293.183594 C 57.515625 259.292969 64.558594 225.359375 72.023438 191.515625 C 79.9375 155.609375 95.875 123.503906 120.210938 95.988281 C 127.363281 87.902344 136.285156 80.996094 145.414062 75.140625 C 160.398438 65.527344 176.207031 57.195312 191.683594 48.347656 C 213.925781 35.636719 237.632812 31.589844 262.824219 36.363281 C 277.460938 39.136719 292.121094 41.789062 306.734375 44.683594 C 313.382812 46 319.320312 49.054688 323.757812 54.25 C 325.84375 56.695312 327.523438 59.730469 328.558594 62.777344 C 330.257812 67.785156 329.074219 69.964844 324.070312 71.410156 C 318.476562 73.023438 312.746094 74.152344 307.226562 75.457031" fill="#ffffff"/></g><g id="change1_5"><path d="M 171.390625 677.492188 C 160.703125 677.0625 150.019531 676.621094 139.332031 676.203125 C 119.070312 675.414062 100.261719 669.890625 82.875 659.335938 C 66.335938 649.296875 50.835938 637.9375 38.335938 623.085938 C 33.734375 617.617188 30.558594 610.925781 26.890625 604.699219 C 26.011719 603.203125 25.625 601.363281 25.257812 599.628906 C 24.1875 594.585938 24.679688 589.789062 29.148438 586.53125 C 33.53125 583.339844 38.503906 584.046875 42.363281 587.070312 C 49.242188 592.453125 55.9375 598.1875 62.027344 604.441406 C 71.960938 614.644531 82.96875 623.363281 94.863281 631.101562 C 109.679688 640.738281 125.851562 645.644531 143.492188 646.058594 C 161.308594 646.472656 179.125 647.0625 196.941406 647.609375 C 205.785156 647.878906 214.027344 645.789062 222.027344 642.027344 C 239.953125 633.59375 256.882812 623.753906 272.269531 611.046875 C 278.171875 606.175781 286.125 603.730469 293.28125 600.484375 C 295.953125 599.269531 297.6875 600.792969 297.84375 603.757812 C 298.070312 607.953125 298.382812 612.152344 298.410156 616.355469 C 298.464844 624.558594 294.742188 631.054688 288.777344 636.371094 C 276.511719 647.292969 262.324219 655.234375 248.101562 663.273438 C 227.214844 675.082031 205.140625 680.09375 181.3125 677.796875 C 178.035156 677.480469 174.699219 677.753906 171.390625 677.753906 C 171.390625 677.667969 171.390625 677.578125 171.390625 677.492188" fill="#ffffff"/></g><g id="change1_6"><path d="M 41.0625 546.222656 C 36.171875 544.460938 30.585938 543.289062 25.902344 540.5625 C 18.921875 536.496094 18.523438 528.503906 24.796875 523.320312 C 28.164062 520.542969 32.175781 518.019531 36.3125 516.800781 C 52.53125 512.011719 65.304688 502.03125 76.800781 490.328125 C 101.890625 464.789062 123.164062 436.191406 142.589844 406.195312 C 152.292969 391.207031 158.308594 374.53125 163.6875 357.617188 C 165.152344 353.007812 166.472656 348.332031 168.246094 343.839844 C 171.933594 334.492188 179.789062 329.84375 187.476562 332.15625 C 194.953125 334.40625 199.554688 343.222656 196.738281 352.667969 C 192.445312 367.046875 187.546875 381.28125 182.175781 395.296875 C 174.164062 416.207031 161.035156 434.164062 147.980469 452.09375 C 132.898438 472.804688 117.105469 492.957031 99.007812 511.152344 C 86.546875 523.683594 73.011719 534.878906 56.476562 541.710938 C 51.835938 543.628906 46.796875 544.578125 41.0625 546.222656" fill="#ffffff"/></g><g id="change1_7"><path d="M 411.136719 361.800781 C 411.5625 382.882812 406.925781 403.277344 402.664062 423.738281 C 395.480469 458.226562 387.21875 492.425781 371.949219 524.371094 C 362.34375 544.472656 351.648438 564.050781 341.339844 583.8125 C 340.179688 586.035156 338.558594 588.109375 336.800781 589.910156 C 332.125 594.695312 325.226562 595.820312 319.585938 592.980469 C 314.0625 590.203125 310.808594 583.773438 312.210938 577.179688 C 312.96875 573.625 314.425781 570.128906 316.085938 566.875 C 324.957031 549.523438 334.324219 532.421875 342.890625 514.925781 C 357.40625 485.292969 365.609375 453.574219 372.046875 421.414062 C 377.429688 394.519531 383.722656 367.90625 392.878906 342.03125 C 394.3125 337.980469 396.21875 334.027344 398.410156 330.328125 C 401.082031 325.820312 404.652344 325.847656 406.394531 330.800781 C 408.648438 337.203125 409.886719 344.011719 411.03125 350.734375 C 411.640625 354.324219 411.136719 358.105469 411.136719 361.800781" fill="#ffffff"/></g><g id="change1_8"><path d="M 360.414062 426.632812 C 359.449219 431.117188 358.847656 435.425781 357.59375 439.535156 C 350.25 463.59375 338.683594 485.703125 325.957031 507.246094 C 310.816406 532.878906 294.421875 557.636719 272.5625 578.140625 C 262.921875 587.179688 252.597656 595.527344 242.1875 603.683594 C 238.835938 606.3125 234.363281 608.015625 230.144531 608.898438 C 224.675781 610.050781 219.765625 607.863281 216.574219 603.058594 C 213.398438 598.273438 213.40625 593.003906 216.21875 588.1875 C 217.964844 585.195312 220.429688 582.296875 223.238281 580.300781 C 256.375 556.78125 280.417969 525.492188 300.484375 490.703125 C 312.613281 469.683594 323.699219 448.242188 330.519531 424.785156 C 331.664062 420.855469 333.9375 417.054688 336.433594 413.757812 C 342.488281 405.757812 353.308594 406.964844 357.519531 416.082031 C 359.035156 419.355469 359.484375 423.117188 360.414062 426.632812" fill="#ffffff"/></g><g clip-path="url(#a)" id="change1_18"><path d="M 160.152344 767.074219 C 139.015625 765.5625 117.242188 763.976562 97.007812 754.78125 C 78.894531 746.550781 66.082031 732.628906 56.882812 715.320312 C 53.234375 708.457031 51.980469 700.851562 53.460938 693.039062 C 54.269531 688.761719 56.152344 685.066406 60.019531 682.710938 C 64.792969 679.804688 69.230469 681.398438 72.382812 685.9375 C 79.417969 696.070312 86.578125 706.152344 94.300781 715.761719 C 99.550781 722.292969 106.699219 726.808594 114.804688 729.226562 C 134.246094 735.035156 154.101562 737.867188 174.386719 735.75 C 185.753906 734.566406 196.273438 730.210938 206.871094 726.109375 C 215.144531 722.90625 223.734375 720.496094 232.261719 718 C 234.519531 717.34375 237.066406 717.511719 239.472656 717.5625 C 244.714844 717.675781 247.363281 720.570312 247.097656 725.824219 C 246.828125 731.222656 244.304688 735.765625 240.480469 739.210938 C 236.066406 743.1875 231.382812 747.125 226.195312 749.9375 C 205.84375 760.976562 184.140625 767.289062 160.152344 767.074219" fill="#ffffff"/></g><g id="change1_9"><path d="M 1.453125 304.058594 C 2.855469 283.9375 5.734375 265.988281 10.855469 248.410156 C 18.765625 221.253906 26.492188 194.042969 34.507812 166.917969 C 36.59375 159.847656 39.164062 152.882812 42.058594 146.105469 C 43.785156 142.0625 46.203125 138.15625 49.03125 134.796875 C 50.964844 132.496094 53.9375 130.640625 56.808594 129.660156 C 61.097656 128.199219 62.085938 129.910156 61.160156 134.335938 C 59.933594 140.164062 59.207031 146.117188 58.625 152.054688 C 56.851562 170.179688 56 188.429688 53.324219 206.414062 C 51.484375 218.8125 47.550781 230.945312 43.957031 243.019531 C 38.195312 262.371094 33.539062 281.882812 31.835938 302.070312 C 31.480469 306.269531 30.085938 310.585938 28.242188 314.394531 C 25.796875 319.453125 21.210938 322.144531 15.457031 321.824219 C 9.6875 321.5 5.625 318.234375 3.597656 312.964844 C 2.300781 309.585938 1.871094 305.871094 1.453125 304.058594" fill="#ffffff"/></g><g id="change1_10"><path d="M 93.78125 570.527344 C 91.160156 570.070312 88.449219 569.902344 85.9375 569.101562 C 76.40625 566.058594 73.582031 555.273438 81.007812 548.558594 C 85.25 544.722656 90.550781 541.785156 95.800781 539.386719 C 119.492188 528.554688 141.636719 515.351562 159.796875 496.484375 C 166.878906 489.121094 172.441406 480.28125 178.5625 472.015625 C 180.601562 469.261719 181.882812 465.902344 184.125 463.363281 C 186.515625 460.660156 189.3125 457.945312 192.492188 456.386719 C 201.488281 451.972656 210.683594 457.546875 211.554688 467.550781 C 212.070312 473.414062 209.8125 478.519531 207.078125 483.484375 C 195.664062 504.21875 180.308594 521.511719 161.429688 535.714844 C 146.433594 546.996094 130.574219 556.921875 113.472656 564.660156 C 107.300781 567.449219 100.636719 569.152344 94.199219 571.351562 C 94.058594 571.078125 93.921875 570.804688 93.78125 570.527344" fill="#ffffff"/></g><g id="change1_11"><path d="M 379.972656 246.660156 C 376.96875 289.886719 369.152344 328.5625 348.867188 363.816406 C 346.136719 368.5625 342.039062 372.597656 338.183594 376.582031 C 336.722656 378.09375 334.226562 378.894531 332.058594 379.355469 C 329.066406 379.992188 326.929688 378.6875 326.191406 375.421875 C 324.769531 369.113281 325.972656 363.035156 327.484375 356.945312 C 332.449219 336.929688 337.425781 316.914062 342.308594 296.878906 C 347.609375 275.128906 349.777344 252.984375 350.648438 230.664062 C 350.859375 225.207031 351.394531 219.722656 352.359375 214.351562 C 352.90625 211.320312 354.15625 208.15625 355.929688 205.652344 C 359.726562 200.300781 366.617188 200.175781 370.480469 205.484375 C 372.667969 208.488281 374.492188 212.167969 375.164062 215.785156 C 377.253906 227.007812 378.71875 238.351562 379.972656 246.660156" fill="#ffffff"/></g><g id="change1_12"><path d="M 415.265625 203.5 C 414.921875 207.597656 414.902344 212.105469 414.070312 216.457031 C 413.414062 219.882812 412.3125 223.476562 410.429688 226.351562 C 406.347656 232.582031 398.671875 233.027344 393.878906 227.320312 C 391.664062 224.683594 389.953125 221.28125 389.0625 217.945312 C 387.285156 211.316406 385.90625 204.535156 384.9375 197.738281 C 381.328125 172.34375 372.65625 148.625 361.738281 125.59375 C 357.535156 116.730469 353.507812 107.78125 349.605469 98.78125 C 348.246094 95.652344 347.21875 92.3125 346.550781 88.96875 C 345.800781 85.203125 347.09375 81.871094 350.289062 79.558594 C 353.414062 77.304688 357.054688 77.175781 360.007812 79.230469 C 364.355469 82.257812 368.878906 85.464844 372.132812 89.546875 C 378.140625 97.089844 384.007812 104.921875 388.65625 113.339844 C 402.277344 138.007812 410.832031 164.472656 414.5 192.457031 C 414.964844 195.984375 415.003906 199.566406 415.265625 203.5" fill="#ffffff"/></g><g id="change1_13"><path d="M 169.664062 21.472656 C 172.210938 21.816406 174.53125 21.890625 176.726562 22.460938 C 187.085938 25.167969 190.261719 36.300781 182.238281 43.363281 C 178.050781 47.042969 172.667969 49.558594 167.503906 51.878906 C 161.601562 54.535156 155.351562 56.425781 149.230469 58.585938 C 128.617188 65.851562 110.53125 77.808594 92.246094 89.375 C 88.40625 91.804688 84.773438 94.566406 81.027344 97.148438 C 78.261719 99.054688 75.300781 99.355469 72.402344 97.636719 C 69.46875 95.898438 68.148438 92.96875 68.929688 89.789062 C 69.644531 86.898438 70.832031 83.867188 72.640625 81.550781 C 95.027344 52.910156 123.09375 32.546875 158.59375 23.269531 C 162.265625 22.3125 166.109375 22.035156 169.664062 21.472656" fill="#ffffff"/></g><g id="change1_14"><path d="M 344.972656 642.386719 C 344.183594 645.546875 343.5625 649.746094 342.089844 653.625 C 336.964844 667.121094 329.773438 679.40625 319.058594 689.261719 C 313.179688 694.667969 307.039062 699.839844 300.636719 704.609375 C 297.761719 706.75 294.0625 707.996094 290.558594 709.015625 C 285.167969 710.585938 280.136719 709.703125 276.453125 704.96875 C 273.335938 700.957031 273.394531 695.605469 276.886719 690.335938 C 279.054688 687.0625 281.53125 683.929688 284.242188 681.085938 C 296.804688 667.910156 309.515625 654.871094 322.136719 641.753906 C 327.019531 636.679688 332.898438 633.296875 339.484375 630.953125 C 342.066406 630.03125 343.386719 630.699219 343.738281 633.394531 C 344.089844 636.039062 344.464844 638.683594 344.972656 642.386719" fill="#ffffff"/></g><g id="change1_15"><path d="M 207.890625 419.828125 C 208.714844 416.921875 209.917969 411.316406 211.90625 406 C 214.847656 398.144531 218.035156 390.347656 221.734375 382.828125 C 223.402344 379.4375 226.046875 376.027344 229.132812 373.933594 C 237.671875 368.128906 249.171875 373.5625 250.546875 383.859375 C 250.953125 386.910156 250.921875 390.480469 249.722656 393.214844 C 244.984375 404.007812 239.8125 414.621094 234.539062 425.171875 C 233.324219 427.609375 231.230469 429.683594 229.269531 431.65625 C 225.292969 435.65625 220.6875 438.222656 214.878906 435.90625 C 210.199219 434.039062 207.761719 429.152344 207.890625 419.828125" fill="#ffffff"/></g><g id="change1_16"><path d="M 242.609375 31.097656 C 235.628906 30.683594 229.117188 29.328125 223.433594 25.148438 C 214.742188 18.757812 215.140625 9.527344 224.53125 4.304688 C 233.855469 -0.882812 243.808594 -1.070312 253.738281 2.0625 C 260.316406 4.136719 264.230469 9.800781 264.15625 15.699219 C 264.085938 21.589844 260.019531 26.964844 253.402344 29.074219 C 249.941406 30.175781 246.21875 30.449219 242.609375 31.097656" fill="#ffffff"/></g><g clip-path="url(#b)" id="change1_17"><path d="M 427.394531 272.878906 C 426.4375 278.234375 426.109375 282.613281 424.777344 286.667969 C 423.785156 289.6875 421.933594 292.71875 419.691406 294.976562 C 414.78125 299.910156 409.007812 299.488281 404.433594 294.207031 C 402.960938 292.511719 401.667969 290.480469 400.914062 288.378906 C 397.382812 278.488281 397.050781 268.449219 400.503906 258.464844 C 402.589844 252.441406 406.949219 248.992188 412.15625 249.070312 C 418.140625 249.160156 422.007812 252.613281 423.789062 257.929688 C 425.503906 263.046875 426.359375 268.453125 427.394531 272.878906" fill="#ffffff"/></g></g></svg>